<?xml version="1.0" encoding="utf-8"?>
<!-- Generator: Adobe Illustrator 21.0.0, SVG Export Plug-In . SVG Version: 6.00 Build 0)  -->
<svg version="1.1" xmlns="http://www.w3.org/2000/svg" xmlns:xlink="http://www.w3.org/1999/xlink" x="0px" y="0px" width="72px"
	 height="72px" viewBox="0 0 72 72" style="enable-background:new 0 0 72 72;" xml:space="preserve">
<style type="text/css">
	.st0{fill:#739CF9;}
	.st1{clip-path:url(#SVGID_2_);}
	.st2{fill:#7CA7E2;}
	.st3{fill:#71A0DC;}
	.st4{fill:#6699D5;}
	.st5{fill:#8EB4E9;}
	.st6{fill:#88AFE6;}
	.st7{fill:#6B9CD8;}
	.st8{fill:#7FAAE2;}
	.st9{fill:#82ABE5;}
	.st10{fill:#8CB2E9;}
	.st11{fill:#72A0DB;}
	.st12{fill:#6094D2;}
	.st13{fill:#77A5E0;}
	.st14{fill:#5C92CF;}
	.st15{fill:#84ADE5;}
	.st16{fill:#89B1E7;}
	.st17{fill:#5990CD;}
	.st18{fill:none;stroke:#FFFFFF;stroke-width:2;}
</style>
<g id="Background">
	<circle class="st0" cx="36" cy="36" r="36"/>
	<g>
		<g>
			<defs>
				<circle id="SVGID_1_" cx="36" cy="36" r="36"/>
			</defs>
			<clipPath id="SVGID_2_">
				<use xlink:href="#SVGID_1_"  style="overflow:visible;"/>
			</clipPath>
			<g class="st1">
				<g>
					<path class="st2" d="M13.5,0c2.3,0,4.7,0,7,0c0.6,2.2,1.5,3.7,4,2c1.7,0,3.3,0,5,0c0.4,2,1.7,3.5,3,5c-0.7,3.4-0.5,5.8,4,4
						c2.5-2.4,5.5-3.4,9-3.1c1.9,0.2,4.1,0.6,5-1.9c0.7,0,1.3,0,2,0c0.4,1.6,1.6,2,3,2c0.7,1.7,1.3,3.3,2,5c-0.3,0-0.7,0-1,0
						c-2,0.3-4,0.6-6,0.9c-0.5-1.6-2-2.4-2.8-1c-1.8,3-4.3,4-7.5,4.5c-1.8,0.3-1.5,2.2-1.7,3.6c-1.7,0-3.3,0-5,0c-2.7,0-5.3,0-8,0
						c0.2-2.4-1.5-3.7-3-5c-0.9-5.6-7.1-10-14-10C9.3,3.3,14.7,4.4,13.5,0z"/>
					<path class="st3" d="M-3.5,58c0-6.7,0-13.3,0-20c7.5-0.4,14.9,0.5,22,3c0.6,1.1,1.3,2.2,1.8,3.2c-4.1,2.2-9.4,3.3-11.7,6.6
						C5.4,55.5,0.9,56.2-3.5,58z"/>
					<path class="st4" d="M-3.5,64c0-1,0-2,0-3c10.3-0.5,20.6-2,31-1c1,0.6,2,1.3,3,1.9c-3.2,2-6.6,1.6-10,1.1
						c-2.2,1.2-4.8,0.6-7.1,1.2c-1.7,0.5-4.8-0.7-4.9,2.8c4.7,6,10.9,6.6,18,2c1,0,2,0,3,0c0.3,1.7,0.7,3.3,1,5c-11.3,0-22.7,0-34,0
						c0-2.3,0-4.7,0-7c2.4-0.1,5,1.7,7.3-1.2C1.6,64-1,64-3.5,64z"/>
					<path class="st5" d="M50.5,13.9c2-0.3,4-0.6,6-0.9c1.2,2.9,3.4,0.5,5,1c3.2,1.5,7.4,0.6,9.3,5.3c0.9,2.2,5.4,0.4,5.6-2.5
						c0.2-3.2,1.5-3.7,4.1-2.8c0,5,0,10,0,15c-2.7,0.2-5.4-0.2-8-1c-1.3-0.3-2.7-0.7-4-1c-2-0.3-4-0.7-6-1c-3-0.2-6.1,0.5-9.4-0.7
						c2-2.4,4.3-2.1,6.3-2.4c1.3-0.2,3.1-0.2,3.1-1.8c0-1.6-1.9-1.6-3.1-1.8c-2.6-0.6-5.4,0.1-7.8-1.3C51,16.7,49.1,15.7,50.5,13.9z
						"/>
					<path class="st6" d="M80.5,14c-2.6-0.8-3.9-0.3-4.1,2.8c-0.2,2.9-4.7,4.6-5.6,2.5c-1.9-4.7-6.1-3.8-9.3-5.3c0-0.7,0-1.3,0-2
						l0,0c2.7-0.6,6,1.5,8-2c1.6-0.2,3.8-0.1,3.3-2.5c-0.4-2-2.3-2.7-4.3-2.2c-2.3,0.6-4.5,2-7,1.7c0.7-3.1-2.1-4.6-3-7
						C65,0,71.5,0.1,78-0.1c2.2-0.1,2.7,0.4,2.6,2.6C80.3,6.3,80.5,10.2,80.5,14z"/>
					<path class="st7" d="M27.5,60c-10.4-1-20.7,0.5-31,1c0-1,0-2,0-3c4.4-1.8,8.9-2.5,12.1-7.3c2.3-3.3,7.6-4.4,11.7-6.6
						c-0.6-1-1.2-2.1-1.8-3.2c0.3,0,0.7,0,1,0c0.7,0,1.3,0,2,0c3.2,3.3,0,5.6-1.5,7.8c-2.2,3.2-1.8,5.1,2.1,5.9
						c1.7,0.4,3.6,0.2,5.4,0.2C27.5,56.7,27.5,58.3,27.5,60z"/>
					<path class="st8" d="M80.5,36c0,4,0,8,0,12c-4.2-0.1-8-1.9-12-3c-1.3,0-2.6-0.1-4-0.1c-1.4-4.5-5.2-2.4-8-3c0-1.3,0-2.7,0-4
						c2.1-0.8,6.1,0.8,5-4c0-1,0-2,0-3c1,0,2,0,3,0c2.4-0.2,4.7,0.4,7,1c0.2,2-0.6,4.5,2,5.6c1.5,0.6,2.5-0.1,3-1.6
						C77.8,36,79.2,36,80.5,36z"/>
					<path class="st8" d="M19.5,41c-0.3,0-0.7,0-1,0c-7.1-2.5-14.5-3.4-22-3c0-2.7,0-5.3,0-8c4,2.6,8.2,4.3,13,2
						c1.7,0.1,3.4-0.2,5-1c0.4,3.9,2.8,2.7,5.1,2.2c2.6-0.6,4.9-3.4,7.9-1.2c-2.6,4.8,1.8,4,4.4,4.7c-2.2,2.6-6.2-0.3-7.4,3.3
						c-0.7,0-1.3,0-2,0C21,38.8,20,39.2,19.5,41z"/>
					<path class="st2" d="M14.5,31c-1.6,0.8-3.3,1.1-5,1c-0.5-2.6-2.2-4.2-4.8-3.9c-3.4,0.4-5.9-1-8.2-3.1c0-1.7,0-3.3,0-5
						c1.3,0,2.7,0,4,0c3.3,0.3,6.7,0.7,10,1c2.7,0.3,5.5-0.7,8,1c0.8,3.1,4.9,1.4,6.4,4.8C20.4,26.2,18.4,30.6,14.5,31z"/>
					<path class="st4" d="M50.5,74c-2.3,0-4.7,0-7,0c0-2.8,1.6-4.5,3.9-5.7c1.4-0.7,4.4,0.4,4-2.3c-0.3-1.8-3.1-1.1-4.8-1.7
						c-1.4-0.5-2.9-0.4-4.2,0.7c-1-0.3-2-0.7-3-1c0-1,0-2,0-3c5.9-1.2,11.2,2.3,17,2c2,1.3,4-0.1,6,0c2.2,1.3,3.5,3.1,2.7,5.7
						c-0.8,2.8-3.3,1.2-4.9,1.7C57,71.5,52.3,68.9,50.5,74z"/>
					<path class="st9" d="M8.5,6c6.9,0,13.1,4.4,14,10c-3.7,0.1-7.3,1.4-11,1c-2.8-2.9-5.3-6.3-10-6c-1,0-2,0-3,0c-0.7,0-1.3,0-2,0
						c0-1,0-2,0-3c1.8-0.4,3.6-0.8,5-2C3.8,6,6.2,6,8.5,6z"/>
					<path class="st10" d="M58.5,0c0.9,2.4,3.7,3.9,3,7c-0.7,0-1.3,0-2,0c-1.8-3.9-4.7-0.4-7-1c-0.7,0-1.3,0-2,0
						c-1.9-0.6-3.9-0.3-5.9-0.2c-4.2,0.3-8.6,1-12-2.8c-0.6-0.7-2.1-0.7-3.2-1c-1.7,0-3.3,0-5,0c0.3-0.7,0.7-1.3,1-2c7,0,14,0,21,0
						c2,4.7,4,3.2,6,0C54.5,0,56.5,0,58.5,0z"/>
					<path class="st7" d="M50.5,74c1.8-5.1,6.5-2.5,9.8-3.6c1.6-0.5,4.1,1.1,4.9-1.7c0.8-2.6-0.5-4.4-2.7-5.7c3.3-2.3,6.7,0.8,10,0
						c0.6,4.1-3.8,6.9-3,11C63.2,74,56.8,74,50.5,74z"/>
					<path class="st11" d="M69.5,74c-0.8-4.2,3.6-6.9,3-11c0.3-0.3,0.7-0.7,1-1c2.3,0.3,4.7,0.7,7,1c0,3.7,1.4,8.8-0.4,10.6
						C78.3,75.4,73.2,74,69.5,74z"/>
					<path class="st12" d="M42.5,65c1.3-1,2.8-1.2,4.2-0.7c1.6,0.6,4.5-0.1,4.8,1.7c0.4,2.6-2.6,1.6-4,2.3c-2.4,1.2-3.9,2.9-3.9,5.7
						c-4.3,0-8.7,0-13,0c-0.3-1.7-0.7-3.3-1-5c1.9-0.5,3.7-0.5,5.7,0.2C39,70.6,42,69.7,42.5,65z"/>
					<path class="st13" d="M73.5,62c-0.3,0.3-0.7,0.7-1,1c-3.3,0.8-6.7-2.3-10,0c-2-0.1-4,1.3-6,0c0.9-2.4,3.1-2.5,5.1-2.9
						c1.6-0.3,3.3-0.1,3.9-2.1c1.5-1,3-2.2,5-2c0.7,0.7,1.3,0.7,2,0c2.7,0,5.3,0,8,0c0,1,0,2,0,3C77.5,58.4,73.9,56.4,73.5,62z"/>
					<path class="st13" d="M8.5,6c-2.3,0-4.7,0-7,0C0,4.7-1.8,5.1-3.5,5c-0.9-4.2,0.7-5.6,5-5.1c4,0.4,8,0.1,12,0.1
						C14.7,4.4,9.3,3.3,8.5,6z"/>
					<path class="st7" d="M70.5,56c-2-0.2-3.5,1-5,2c-1.9,0-3.7-0.5-5-2c4.4-2.3,9-3.8,14-4c2,0,4,0,6,0c0,1.3,0,2.7,0,4
						c-2.7,0-5.3,0-8,0C71.8,55.3,71.2,55.3,70.5,56z"/>
					<path class="st11" d="M-3.5,25c2.3,2.1,4.8,3.5,8.2,3.1C7.3,27.8,9,29.4,9.5,32c-4.8,2.3-9,0.6-13-2C-3.5,28.3-3.5,26.7-3.5,25
						z"/>
					<path class="st12" d="M80.5,52c-2,0-4,0-6,0c-3.1-1.4-6-2.9-6-6.9c4,1.1,7.8,2.9,12,3C80.5,49.3,80.5,50.7,80.5,52z"/>
					<path class="st11" d="M-1.5,11c1,0,2,0,3,0c2.1,3.3,2.1,6.3-1,9c-1.3,0-2.7,0-4,0c0-2.3,0-4.7,0-7C-2.4,12.8-1.7,12.1-1.5,11z"
						/>
					<path class="st6" d="M72.5,28c2.6,0.8,5.3,1.2,8,1c0,1.3,0,2.7,0,4c-2,0-4,0-6,0c-0.3-0.3-0.7-0.6-1-1
						C73.2,30.7,72.8,29.3,72.5,28z"/>
					<path class="st2" d="M73.5,62c0.4-5.6,4-3.6,7-3c0,1.3,0,2.7,0,4C78.2,62.7,75.8,62.3,73.5,62z"/>
					<path class="st14" d="M-3.5,64c2.5,0,5.1,0,7.3,1.8c-2.3,2.9-4.9,1.1-7.3,1.2C-3.5,66-3.5,65-3.5,64z"/>
					<path class="st7" d="M74.5,33c2,0,4,0,6,0c0,1,0,2,0,3c-1.3,0-2.7,0-4,0C75.3,35.3,74.6,34.3,74.5,33z"/>
					<path class="st6" d="M52.5,0c-2,3.2-4,4.7-6,0C48.5,0,50.5,0,52.5,0z"/>
					<path class="st2" d="M-3.5,5c1.7,0.1,3.5-0.3,5,1c-1.4,1.2-3.2,1.6-5,2C-3.5,7-3.5,6-3.5,5z"/>
					<path class="st6" d="M25.5,0c-0.3,0.7-0.7,1.3-1,2c-2.5,1.7-3.4,0.1-4-2C22.2,0,23.8,0,25.5,0z"/>
					<path class="st13" d="M-1.5,11c-0.2,1.1-0.9,1.8-2,2c0-0.7,0-1.3,0-2C-2.8,11-2.2,11-1.5,11z"/>
					<path class="st15" d="M14.5,31c3.9-0.4,5.9-4.8,10.4-4.2c-1.5-3.4-5.6-1.7-6.4-4.8c2.4-0.2,4.8,0.6,7-1c2.7,0,5.3,0,8,0
						c0,2.3,1.1,3.5,3.4,4.1c2.8,0.7,5.5,0.9,8.3,0.9c3.4,0,5.7,1.4,6.3,5c-1.9-0.2-3.9-0.7-5.8-0.7c-4.1,0.1-8.5-1.4-12.2,1.6
						c-2,0-4,0-6,0c-3-2.2-5.3,0.6-7.9,1.2C17.3,33.7,14.9,34.9,14.5,31z"/>
					<path class="st16" d="M51.5,31c-0.6-3.6-2.9-5-6.3-5c-2.8,0-5.6-0.2-8.3-0.9c-2.3-0.6-3.4-1.8-3.4-4.1c1.7,0,3.3,0,5,0
						c3.1,0,6.2,0,9.4,0c2.1,0,3.5-0.6,3.6-3c2.5,1.4,5.2,0.7,7.8,1.3c1.2,0.3,3.1,0.2,3.1,1.8c0,1.6-1.8,1.6-3.1,1.8
						C57.2,23.2,55,23,53,25.3c3.3,1.1,6.4,0.5,9.4,0.7c-1.1,2.8-4.5,2.8-6,5C54.8,31,53.2,31,51.5,31z"/>
					<path class="st15" d="M51.5,18c-0.1,2.4-1.6,3-3.6,3c-3.1,0-6.2,0-9.4,0c0.1-1.4-0.2-3.4,1.7-3.6c3.2-0.4,5.7-1.5,7.5-4.5
						c0.8-1.4,2.3-0.5,2.8,1C49.1,15.7,51,16.7,51.5,18z"/>
					<path class="st11" d="M25.5,21c-2.2,1.6-4.7,0.8-7,1c-2.5-1.7-5.3-0.7-8-1c0.3-1.3,0.7-2.7,1-4c3.7,0.4,7.3-0.9,11-1
						C24,17.4,25.8,18.6,25.5,21z"/>
					<path class="st8" d="M59.5,7c0.7,0,1.3,0,2,0c2.6,0.3,4.7-1.1,7-1.7c2-0.5,3.9,0.2,4.3,2.2c0.5,2.4-1.7,2.3-3.3,2.5
						c-2.6,0.9-6.5-3.3-8,2l0,0c-1.3,0.3-2.7,0.7-4,1c-0.7-1.7-1.3-3.3-2-5C56.9,8,58.4,8.1,59.5,7z"/>
					<path class="st6" d="M29.5,2c1.1,0.3,2.6,0.3,3.2,1c3.4,3.8,7.7,3.2,12,2.8c2-0.2,3.9-0.4,5.9,0.2c-1,2.5-3.2,2.1-5,1.9
						C42,7.6,39,8.6,36.5,11c-1.1-1.5-1.8-3.5-4-4C31.2,5.5,29.9,4.1,29.5,2z"/>
					<path class="st6" d="M59.5,7c-1.1,1.1-2.6,1-4,1s-2.6-0.4-3-2C54.8,6.6,57.7,3.1,59.5,7z"/>
					<path class="st9" d="M32.5,7c2.2,0.5,2.9,2.5,4,4C32,12.8,31.7,10.4,32.5,7z"/>
					<path class="st15" d="M57.5,13c1.3-0.3,2.7-0.7,4-1c0,0.7,0,1.3,0,2c-1.6-0.5-3.8,1.9-5-1C56.8,13,57.2,13,57.5,13z"/>
					<path class="st11" d="M60.5,56c1.4,1.5,3.1,2,5,2c-0.6,2-2.3,1.8-3.9,2.1c-2,0.4-4.3,0.5-5.1,2.9c-5.8,0.4-11.1-3.2-17-2
						c-1,0-2,0-3,0c-2,0.3-4,0.6-6,0.9c-1-0.6-2-1.3-3-1.9c0-1.7,0-3.3,0-5c2.3,0.3,4.7,0.7,7,1c0.7,0,1.3,0,2,0c3.7-0.4,7.5,1,11-1
						c1.7-0.3,3.3-0.7,5-1C54.6,57,57.7,55.7,60.5,56z"/>
					<path class="st17" d="M30.5,61.9c2-0.3,4-0.6,6-0.9c0.4,1.6-0.2,4.2,3,2.9c1,0.3,2,0.7,3,1c-0.5,4.7-3.5,5.6-7.3,4.2
						c-2-0.7-3.8-0.7-5.7-0.2c-1,0-2,0-3,0c-0.7-0.3-1.3-0.7-2-1c-0.4-2.4-4.5-1.9-4-5C23.9,63.5,27.4,63.9,30.5,61.9z"/>
					<path class="st14" d="M20.5,63c-0.5,3.1,3.6,2.6,4,5c-4.8,1.2-9.5,1.7-14.1-0.9C9.9,66.8,9.2,67,8.5,67
						c0.1-3.5,3.2-2.3,4.9-2.8C15.7,63.6,18.3,64.2,20.5,63z"/>
					<path class="st12" d="M8.5,67c0.7,0,1.4-0.2,1.9,0.1c4.6,2.6,9.3,2.1,14.1,0.9c0.7,0.3,1.3,0.7,2,1C19.4,73.6,13.2,73,8.5,67z"
						/>
					<path class="st6" d="M56.5,31c1.5-2.2,4.9-2.2,6-5c2,0.3,4,0.7,6,1c-0.3,2.3-3.7,1.7-4,4c-1,0-2,0-3,0c-1.3,0.3-2.7,0.7-4,1
						C57.2,31.7,56.8,31.3,56.5,31z"/>
					<path class="st15" d="M64.5,31c0.3-2.3,3.7-1.7,4-4c1.3,0.3,2.7,0.7,4,1c0.3,1.3,0.7,2.7,1,4c-0.7,0-1.3,0-2,0
						C69.2,31.4,66.9,30.8,64.5,31z"/>
					<path class="st15" d="M61.5,12c1.5-5.3,5.4-1.1,8-2C67.5,13.5,64.2,11.4,61.5,12z"/>
					<path class="st4" d="M47.5,55c-3.5,2-7.3,0.6-11,1c-0.2-0.6-0.3-1.4-1.2-1.2c-0.3,0.1-0.5,0.8-0.8,1.2c-2.3-0.3-4.7-0.7-7-1
						c-1.8-0.1-3.7,0.1-5.4-0.2C18.2,54,17.8,52,20,48.9c1.5-2.2,4.7-4.5,1.5-7.8c0.3-0.3,0.7-0.7,1-1c0.7,0,1.3,0,2,0
						c2.1,0,4.1,0,6,1.1c-1.4,3.3-1.4,5.5,3.3,5.1c2-0.2,4.4,0.4,5.1,2.4C40.4,52.7,43.9,53.9,47.5,55z M28,49.8
						c-0.8-1.7-2.3-1.8-4-1.7c-1.3,0.1-2.4,0.7-1.9,2.1c0.6,1.7,2.2,1.8,3.7,1.7C27,51.9,28.1,51.6,28,49.8z"/>
					<path class="st13" d="M22.5,40c-0.3,0.3-0.7,0.7-1,1c-0.7,0-1.3,0-2,0C20,39.2,21,38.8,22.5,40z"/>
					<path class="st4" d="M60.5,56c-2.8-0.3-5.9,1-8-2c0-0.3,0-0.7,0-1c0.7-0.3,1.3-0.7,2-1c1.4-0.2,3.2,0,3.4-2
						c0.1-1.5-1.2-1.7-2.4-2c-2,0.3-4,0.6-6,0.9c-0.3-1.7-1.3-3.6,1.6-4.1c1.5-0.3,2.1-1.4,2.4-2.8c0.7,0,1.3,0,2,0
						c1.8,4.9,5.9,2.3,9.1,2.9c1.3,0,2.6,0.1,4,0.1c0,4,2.9,5.6,6,6.9C69.5,52.2,64.9,53.7,60.5,56z"/>
					<path class="st13" d="M55.5,42c-0.7,0-1.3,0-2,0s-1.3-0.1-2-0.1c-0.7-0.3-1.3-0.6-2-1l0,0c0.3-2,0.7-4,1-6c0.8-0.8,1.9-1,3-1
						c0,2.1,0.7,3.6,3,4c0,1.3,0,2.7,0,4C56.2,42,55.8,42,55.5,42z"/>
					<path class="st11" d="M56.5,38c-2.3-0.4-3-1.9-3-4c1.3,0,2.7,0,4,0s2.7,0,4,0C62.6,38.8,58.6,37.2,56.5,38z"/>
					<path class="st3" d="M55.5,42c0.3,0,0.7,0,1,0c2.9,0.5,6.6-1.5,8,3C61.4,44.3,57.2,46.9,55.5,42z"/>
					<path class="st13" d="M71.5,32c0.7,0,1.3,0,2,0c0.3,0.3,0.7,0.6,1,1c0.1,1.4,0.8,2.4,2,3c-0.5,1.5-1.5,2.2-3,1.6
						C70.9,36.5,71.7,34,71.5,32z"/>
					<path class="st15" d="M61.5,34c-1.3,0-2.7,0-4,0c0-0.7,0-1.3,0-2c1.3-0.3,2.7-0.7,4-1C61.5,32,61.5,33,61.5,34z"/>
					<path class="st13" d="M30.5,41c-1.9-1.1-4-1.1-6-1.1c1.2-3.6,5.2-0.7,7.4-3.3c-2.6-0.7-7,0.1-4.4-4.7c2,0,4,0,6,0
						c2.1,0.9,4.9,0.2,6,3c-0.6,1-2.5,2-0.1,2.9c2,0.8,2,2.3,2.1,4C37.8,41.7,34.2,41.3,30.5,41z"/>
					<path class="st13" d="M11.5,17c-0.3,1.3-0.7,2.7-1,4c-3.3-0.3-6.7-0.7-10-1c3.1-2.7,3.1-5.7,1-9C6.2,10.7,8.7,14.1,11.5,17z"/>
					<path class="st12" d="M39.5,64c-3.2,1.3-2.6-1.3-3-2.9c1,0,2,0,3,0C39.5,62,39.5,63,39.5,64z"/>
					<path class="st11" d="M70.5,56c0.7-0.7,1.3-0.7,2,0C71.8,56.7,71.2,56.7,70.5,56z"/>
					<path class="st2" d="M39.5,35c-1.1-2.8-4-2.1-6-3c3.7-3,8.1-1.5,12.2-1.6c1.9-0.1,3.9,0.4,5.8,0.7c1.7,0,3.3,0,5,0
						c0.3,0.3,0.7,0.7,1,1c0,0.7,0,1.3,0,2c-1.3,0-2.7,0-4,0c-1.1,0-2.2,0.2-3,1C46.8,35,43.2,35,39.5,35z"/>
					<path class="st14" d="M30.5,41c3.7,0.3,7.3,0.6,11,0.9c3,1.9,5.3-0.9,8-1l0,0c0.3,1.1,0.7,2,2,1c0.7,0,1.3,0.1,2,0.1
						c-0.2,1.4-0.9,2.5-2.4,2.8c-2.9,0.5-1.9,2.4-1.6,4.1c-3.8,4.8,2,2.7,3,4.1c0,0.3,0,0.7,0,1c-1.7,0.3-3.3,0.7-5,1
						c-3.6-1.1-7.1-2.3-8.6-6.5c-0.7-2-3.1-2.6-5.1-2.4C29.1,46.6,29.1,44.3,30.5,41z"/>
					<path class="st7" d="M34.5,56c0.3-0.4,0.4-1.1,0.8-1.2c0.9-0.3,1,0.6,1.2,1.2C35.8,56,35.2,56,34.5,56z"/>
					<path class="st7" d="M28,49.8c0.1,1.8-1,2.1-2.2,2.1c-1.5,0.1-3.1,0-3.7-1.7c-0.5-1.5,0.6-2,1.9-2.1C25.7,48,27.2,48.1,28,49.8
						z"/>
					<path class="st17" d="M52.5,53c-1-1.4-6.7,0.8-3-4.1c2-0.3,4-0.6,6-0.9c-0.3,1.3-0.7,2.7-1,4C53.8,52.3,53.2,52.7,52.5,53z"/>
					<path class="st14" d="M54.5,52c0.3-1.3,0.7-2.7,1-4c1.1,0.3,2.5,0.5,2.4,2C57.7,52,55.9,51.8,54.5,52z"/>
					<path class="st3" d="M49.5,41c-2.7,0.1-5.1,2.9-8,1c0-1.7,0-3.3-2.1-4c-2.4-1-0.5-2,0.1-3c3.7,0,7.3,0,11,0
						C50.2,37,49.8,39,49.5,41z"/>
					<path class="st4" d="M51.5,42c-1.3,1-1.7,0.1-2-1C50.2,41.3,50.8,41.6,51.5,42z"/>
				</g>
			</g>
		</g>
	</g>
</g>
<g id="Outline">
	<g>
		<rect x="12.8" y="20.7" class="st18" width="46.5" height="30.6"/>
		<polyline class="st18" points="59.3,21.7 36.1,37.8 12.8,21.7 		"/>
	</g>
</g>
</svg>
